# xmcd CD database file
#
# Track frame offsets:
#	187
#	16315
#	33975
#	52932
#	71645
#	92535
#	110825
#	125972
#	144657
#	161007
#
# Disc length: 2369 seconds
#
# Revision: 0
# Processed by: cddbd v1.5.1PL0 Copyright (c) Steve Scherf et al.
# Submitted via: CDex 1.51
#
DISCID=8b093f0a
DTITLE=tatsuro yamashita - light intelligence series
DYEAR=1990
DGENRE=Easy Listening
TTITLE0=RIDE ON TIME
TTITLE1=LOVELAND,ISLAND
TTITLE2=あまく危険な香り
TTITLE3=クリスマス・イブ
TTITLE4=GET BACK IN LOVE
TTITLE5=LAST STEP
TTITLE6=愛を描いて（Let's kiss the sun)
TTITLE7=YOUR EYES
TTITLE8=僕の中の少年
TTITLE9=潮騒(THE WHISPRING SEA
EXTD=YEAR: 1990
EXTT0=
EXTT1=
EXTT2=
EXTT3=
EXTT4=
EXTT5=
EXTT6=
EXTT7=
EXTT8=
EXTT9=
PLAYORDER=
